<svg id="visual" viewBox="0 0 900 600" width="900" height="600" xmlns="http://www.w3.org/2000/svg" xmlns:xlink="http://www.w3.org/1999/xlink" version="1.1"><rect x="0" y="0" width="900" height="600" fill="#a0e5a9"></rect><path d="M0 394L129 373L257 385L386 399L514 440L643 397L771 372L900 387L900 601L771 601L643 601L514 601L386 601L257 601L129 601L0 601Z" fill="#78d383"></path><path d="M0 423L129 476L257 476L386 456L514 442L643 457L771 419L900 419L900 601L771 601L643 601L514 601L386 601L257 601L129 601L0 601Z" fill="#61bc67"></path><path d="M0 452L129 505L257 485L386 466L514 464L643 471L771 460L900 466L900 601L771 601L643 601L514 601L386 601L257 601L129 601L0 601Z" fill="#49a54b"></path><path d="M0 501L129 540L257 499L386 533L514 522L643 483L771 481L900 483L900 601L771 601L643 601L514 601L386 601L257 601L129 601L0 601Z" fill="#308f2f"></path><path d="M0 552L129 524L257 571L386 570L514 551L643 549L771 533L900 553L900 601L771 601L643 601L514 601L386 601L257 601L129 601L0 601Z" fill="#11790e"></path></svg>