<svg id="visual" viewBox="0 0 1900 200" width="1900" height="200" xmlns="http://www.w3.org/2000/svg" xmlns:xlink="http://www.w3.org/1999/xlink" version="1.1"><path d="M0 103L24.3 103.7C48.7 104.3 97.3 105.7 146 115.7C194.7 125.7 243.3 144.3 292 146.3C340.7 148.3 389.3 133.7 438.2 127.7C487 121.7 536 124.3 584.8 131.7C633.7 139 682.3 151 731 147.8C779.7 144.7 828.3 126.3 877 115.2C925.7 104 974.3 100 1023 99.7C1071.7 99.3 1120.3 102.7 1169 105.5C1217.7 108.3 1266.3 110.7 1315.2 115C1364 119.3 1413 125.7 1461.8 122.5C1510.7 119.3 1559.3 106.7 1608 107.8C1656.7 109 1705.3 124 1754 128.7C1802.7 133.3 1851.3 127.7 1875.7 124.8L1900 122L1900 201L1875.7 201C1851.3 201 1802.7 201 1754 201C1705.3 201 1656.7 201 1608 201C1559.3 201 1510.7 201 1461.8 201C1413 201 1364 201 1315.2 201C1266.3 201 1217.7 201 1169 201C1120.3 201 1071.7 201 1023 201C974.3 201 925.7 201 877 201C828.3 201 779.7 201 731 201C682.3 201 633.7 201 584.8 201C536 201 487 201 438.2 201C389.3 201 340.7 201 292 201C243.3 201 194.7 201 146 201C97.3 201 48.7 201 24.3 201L0 201Z" fill="#a0c4a2" stroke-linecap="round" stroke-linejoin="miter"></path></svg>