<svg id="visual" viewBox="0 0 900 600" width="900" height="600" xmlns="http://www.w3.org/2000/svg" xmlns:xlink="http://www.w3.org/1999/xlink" version="1.1"><path d="M0 445L21.5 451.7C43 458.3 86 471.7 128.8 459.8C171.7 448 214.3 411 257.2 415.5C300 420 343 466 385.8 480.2C428.7 494.3 471.3 476.7 514.2 460.2C557 443.7 600 428.3 642.8 429.8C685.7 431.3 728.3 449.7 771.2 452.2C814 454.7 857 441.3 878.5 434.7L900 428L900 601L878.5 601C857 601 814 601 771.2 601C728.3 601 685.7 601 642.8 601C600 601 557 601 514.2 601C471.3 601 428.7 601 385.8 601C343 601 300 601 257.2 601C214.3 601 171.7 601 128.8 601C86 601 43 601 21.5 601L0 601Z" fill="#4bc981" stroke-linecap="round" stroke-linejoin="miter"></path></svg>